<mxfile host="app.diagrams.net" modified="2021-10-17T18:18:45.959Z" agent="5.0 (Macintosh; Intel Mac OS X 10_15_7) AppleWebKit/537.36 (KHTML, like Gecko) Chrome/91.0.4472.164 Safari/537.36" etag="EEN8Gb_XSPei3EIGcyTe" version="14.5.4" type="github">
  <diagram id="n6CThI3MKDBFqZkLOeN-" name="Page-1">
    <mxGraphModel dx="946" dy="568" grid="1" gridSize="10" guides="1" tooltips="1" connect="1" arrows="1" fold="1" page="1" pageScale="1" pageWidth="850" pageHeight="1100" math="0" shadow="0">
      <root>
        <mxCell id="0" />
        <mxCell id="1" parent="0" />
        <mxCell id="B2AtOXa8_qwbwvySUOUb-96" value="Performs" style="edgeStyle=orthogonalEdgeStyle;rounded=0;orthogonalLoop=1;jettySize=auto;html=1;entryX=0.5;entryY=0;entryDx=0;entryDy=0;" edge="1" parent="1" source="B2AtOXa8_qwbwvySUOUb-1" target="B2AtOXa8_qwbwvySUOUb-17">
          <mxGeometry relative="1" as="geometry" />
        </mxCell>
        <mxCell id="B2AtOXa8_qwbwvySUOUb-1" value="AthleteÂ " style="shape=table;startSize=20;container=1;collapsible=1;childLayout=tableLayout;fixedRows=1;rowLines=0;fontStyle=1;align=center;resizeLast=1;" vertex="1" parent="1">
          <mxGeometry x="310" y="200" width="180" height="270" as="geometry" />
        </mxCell>
        <mxCell id="B2AtOXa8_qwbwvySUOUb-2" value="" style="shape=partialRectangle;collapsible=0;dropTarget=0;pointerEvents=0;fillColor=none;top=0;left=0;bottom=1;right=0;points=[[0,0.5],[1,0.5]];portConstraint=eastwest;" vertex="1" parent="B2AtOXa8_qwbwvySUOUb-1">
          <mxGeometry y="20" width="180" height="20" as="geometry" />
        </mxCell>
        <mxCell id="B2AtOXa8_qwbwvySUOUb-3" value="PK" style="shape=partialRectangle;connectable=0;fillColor=none;top=0;left=0;bottom=0;right=0;fontStyle=1;overflow=hidden;" vertex="1" parent="B2AtOXa8_qwbwvySUOUb-2">
          <mxGeometry width="30" height="20" as="geometry" />
        </mxCell>
        <mxCell id="B2AtOXa8_qwbwvySUOUb-4" value="TeamID" style="shape=partialRectangle;connectable=0;fillColor=none;top=0;left=0;bottom=0;right=0;align=left;spacingLeft=6;fontStyle=5;overflow=hidden;" vertex="1" parent="B2AtOXa8_qwbwvySUOUb-2">
          <mxGeometry x="30" width="150" height="20" as="geometry" />
        </mxCell>
        <mxCell id="B2AtOXa8_qwbwvySUOUb-5" value="" style="shape=partialRectangle;collapsible=0;dropTarget=0;pointerEvents=0;fillColor=none;top=0;left=0;bottom=0;right=0;points=[[0,0.5],[1,0.5]];portConstraint=eastwest;" vertex="1" parent="B2AtOXa8_qwbwvySUOUb-1">
          <mxGeometry y="40" width="180" height="30" as="geometry" />
        </mxCell>
        <mxCell id="B2AtOXa8_qwbwvySUOUb-6" value="" style="shape=partialRectangle;connectable=0;fillColor=none;top=0;left=0;bottom=0;right=0;editable=1;overflow=hidden;" vertex="1" parent="B2AtOXa8_qwbwvySUOUb-5">
          <mxGeometry width="30" height="30" as="geometry" />
        </mxCell>
        <mxCell id="B2AtOXa8_qwbwvySUOUb-7" value="First Name" style="shape=partialRectangle;connectable=0;fillColor=none;top=0;left=0;bottom=0;right=0;align=left;spacingLeft=6;overflow=hidden;" vertex="1" parent="B2AtOXa8_qwbwvySUOUb-5">
          <mxGeometry x="30" width="150" height="30" as="geometry" />
        </mxCell>
        <mxCell id="B2AtOXa8_qwbwvySUOUb-116" style="shape=partialRectangle;collapsible=0;dropTarget=0;pointerEvents=0;fillColor=none;top=0;left=0;bottom=0;right=0;points=[[0,0.5],[1,0.5]];portConstraint=eastwest;" vertex="1" parent="B2AtOXa8_qwbwvySUOUb-1">
          <mxGeometry y="70" width="180" height="30" as="geometry" />
        </mxCell>
        <mxCell id="B2AtOXa8_qwbwvySUOUb-117" style="shape=partialRectangle;connectable=0;fillColor=none;top=0;left=0;bottom=0;right=0;editable=1;overflow=hidden;" vertex="1" parent="B2AtOXa8_qwbwvySUOUb-116">
          <mxGeometry width="30" height="30" as="geometry" />
        </mxCell>
        <mxCell id="B2AtOXa8_qwbwvySUOUb-118" value="Last Name" style="shape=partialRectangle;connectable=0;fillColor=none;top=0;left=0;bottom=0;right=0;align=left;spacingLeft=6;overflow=hidden;" vertex="1" parent="B2AtOXa8_qwbwvySUOUb-116">
          <mxGeometry x="30" width="150" height="30" as="geometry" />
        </mxCell>
        <mxCell id="B2AtOXa8_qwbwvySUOUb-113" style="shape=partialRectangle;collapsible=0;dropTarget=0;pointerEvents=0;fillColor=none;top=0;left=0;bottom=0;right=0;points=[[0,0.5],[1,0.5]];portConstraint=eastwest;" vertex="1" parent="B2AtOXa8_qwbwvySUOUb-1">
          <mxGeometry y="100" width="180" height="30" as="geometry" />
        </mxCell>
        <mxCell id="B2AtOXa8_qwbwvySUOUb-114" style="shape=partialRectangle;connectable=0;fillColor=none;top=0;left=0;bottom=0;right=0;editable=1;overflow=hidden;" vertex="1" parent="B2AtOXa8_qwbwvySUOUb-113">
          <mxGeometry width="30" height="30" as="geometry" />
        </mxCell>
        <mxCell id="B2AtOXa8_qwbwvySUOUb-115" value="DOB" style="shape=partialRectangle;connectable=0;fillColor=none;top=0;left=0;bottom=0;right=0;align=left;spacingLeft=6;overflow=hidden;" vertex="1" parent="B2AtOXa8_qwbwvySUOUb-113">
          <mxGeometry x="30" width="150" height="30" as="geometry" />
        </mxCell>
        <mxCell id="B2AtOXa8_qwbwvySUOUb-8" value="" style="shape=partialRectangle;collapsible=0;dropTarget=0;pointerEvents=0;fillColor=none;top=0;left=0;bottom=0;right=0;points=[[0,0.5],[1,0.5]];portConstraint=eastwest;" vertex="1" parent="B2AtOXa8_qwbwvySUOUb-1">
          <mxGeometry y="130" width="180" height="30" as="geometry" />
        </mxCell>
        <mxCell id="B2AtOXa8_qwbwvySUOUb-9" value="" style="shape=partialRectangle;connectable=0;fillColor=none;top=0;left=0;bottom=0;right=0;editable=1;overflow=hidden;" vertex="1" parent="B2AtOXa8_qwbwvySUOUb-8">
          <mxGeometry width="30" height="30" as="geometry" />
        </mxCell>
        <mxCell id="B2AtOXa8_qwbwvySUOUb-10" value="Phone Number" style="shape=partialRectangle;connectable=0;fillColor=none;top=0;left=0;bottom=0;right=0;align=left;spacingLeft=6;overflow=hidden;" vertex="1" parent="B2AtOXa8_qwbwvySUOUb-8">
          <mxGeometry x="30" width="150" height="30" as="geometry" />
        </mxCell>
        <mxCell id="B2AtOXa8_qwbwvySUOUb-11" value="" style="shape=partialRectangle;collapsible=0;dropTarget=0;pointerEvents=0;fillColor=none;top=0;left=0;bottom=0;right=0;points=[[0,0.5],[1,0.5]];portConstraint=eastwest;" vertex="1" parent="B2AtOXa8_qwbwvySUOUb-1">
          <mxGeometry y="160" width="180" height="30" as="geometry" />
        </mxCell>
        <mxCell id="B2AtOXa8_qwbwvySUOUb-12" value="" style="shape=partialRectangle;connectable=0;fillColor=none;top=0;left=0;bottom=0;right=0;editable=1;overflow=hidden;" vertex="1" parent="B2AtOXa8_qwbwvySUOUb-11">
          <mxGeometry width="30" height="30" as="geometry" />
        </mxCell>
        <mxCell id="B2AtOXa8_qwbwvySUOUb-13" value="Height" style="shape=partialRectangle;connectable=0;fillColor=none;top=0;left=0;bottom=0;right=0;align=left;spacingLeft=6;overflow=hidden;" vertex="1" parent="B2AtOXa8_qwbwvySUOUb-11">
          <mxGeometry x="30" width="150" height="30" as="geometry" />
        </mxCell>
        <mxCell id="B2AtOXa8_qwbwvySUOUb-14" style="shape=partialRectangle;collapsible=0;dropTarget=0;pointerEvents=0;fillColor=none;top=0;left=0;bottom=0;right=0;points=[[0,0.5],[1,0.5]];portConstraint=eastwest;" vertex="1" parent="B2AtOXa8_qwbwvySUOUb-1">
          <mxGeometry y="190" width="180" height="30" as="geometry" />
        </mxCell>
        <mxCell id="B2AtOXa8_qwbwvySUOUb-15" style="shape=partialRectangle;connectable=0;fillColor=none;top=0;left=0;bottom=0;right=0;editable=1;overflow=hidden;" vertex="1" parent="B2AtOXa8_qwbwvySUOUb-14">
          <mxGeometry width="30" height="30" as="geometry" />
        </mxCell>
        <mxCell id="B2AtOXa8_qwbwvySUOUb-16" value="Address" style="shape=partialRectangle;connectable=0;fillColor=none;top=0;left=0;bottom=0;right=0;align=left;spacingLeft=6;overflow=hidden;" vertex="1" parent="B2AtOXa8_qwbwvySUOUb-14">
          <mxGeometry x="30" width="150" height="30" as="geometry" />
        </mxCell>
        <mxCell id="B2AtOXa8_qwbwvySUOUb-119" style="shape=partialRectangle;collapsible=0;dropTarget=0;pointerEvents=0;fillColor=none;top=0;left=0;bottom=0;right=0;points=[[0,0.5],[1,0.5]];portConstraint=eastwest;" vertex="1" parent="B2AtOXa8_qwbwvySUOUb-1">
          <mxGeometry y="220" width="180" height="30" as="geometry" />
        </mxCell>
        <mxCell id="B2AtOXa8_qwbwvySUOUb-120" style="shape=partialRectangle;connectable=0;fillColor=none;top=0;left=0;bottom=0;right=0;editable=1;overflow=hidden;" vertex="1" parent="B2AtOXa8_qwbwvySUOUb-119">
          <mxGeometry width="30" height="30" as="geometry" />
        </mxCell>
        <mxCell id="B2AtOXa8_qwbwvySUOUb-121" value="Password" style="shape=partialRectangle;connectable=0;fillColor=none;top=0;left=0;bottom=0;right=0;align=left;spacingLeft=6;overflow=hidden;" vertex="1" parent="B2AtOXa8_qwbwvySUOUb-119">
          <mxGeometry x="30" width="150" height="30" as="geometry" />
        </mxCell>
        <mxCell id="B2AtOXa8_qwbwvySUOUb-92" style="edgeStyle=orthogonalEdgeStyle;rounded=0;orthogonalLoop=1;jettySize=auto;html=1;entryX=0.5;entryY=0;entryDx=0;entryDy=0;" edge="1" parent="1" source="B2AtOXa8_qwbwvySUOUb-17" target="B2AtOXa8_qwbwvySUOUb-40">
          <mxGeometry relative="1" as="geometry" />
        </mxCell>
        <mxCell id="B2AtOXa8_qwbwvySUOUb-17" value="Workout" style="shape=table;startSize=30;container=1;collapsible=1;childLayout=tableLayout;fixedRows=1;rowLines=0;fontStyle=1;align=center;resizeLast=1;" vertex="1" parent="1">
          <mxGeometry x="310" y="590" width="180" height="120" as="geometry" />
        </mxCell>
        <mxCell id="B2AtOXa8_qwbwvySUOUb-18" value="" style="shape=partialRectangle;collapsible=0;dropTarget=0;pointerEvents=0;fillColor=none;top=0;left=0;bottom=1;right=0;points=[[0,0.5],[1,0.5]];portConstraint=eastwest;" vertex="1" parent="B2AtOXa8_qwbwvySUOUb-17">
          <mxGeometry y="30" width="180" height="20" as="geometry" />
        </mxCell>
        <mxCell id="B2AtOXa8_qwbwvySUOUb-19" value="PK" style="shape=partialRectangle;connectable=0;fillColor=none;top=0;left=0;bottom=0;right=0;fontStyle=1;overflow=hidden;" vertex="1" parent="B2AtOXa8_qwbwvySUOUb-18">
          <mxGeometry width="30" height="20" as="geometry" />
        </mxCell>
        <mxCell id="B2AtOXa8_qwbwvySUOUb-20" value="WorkOut Number" style="shape=partialRectangle;connectable=0;fillColor=none;top=0;left=0;bottom=0;right=0;align=left;spacingLeft=6;fontStyle=5;overflow=hidden;" vertex="1" parent="B2AtOXa8_qwbwvySUOUb-18">
          <mxGeometry x="30" width="150" height="20" as="geometry" />
        </mxCell>
        <mxCell id="B2AtOXa8_qwbwvySUOUb-21" value="" style="shape=partialRectangle;collapsible=0;dropTarget=0;pointerEvents=0;fillColor=none;top=0;left=0;bottom=0;right=0;points=[[0,0.5],[1,0.5]];portConstraint=eastwest;" vertex="1" parent="B2AtOXa8_qwbwvySUOUb-17">
          <mxGeometry y="50" width="180" height="30" as="geometry" />
        </mxCell>
        <mxCell id="B2AtOXa8_qwbwvySUOUb-22" value="" style="shape=partialRectangle;connectable=0;fillColor=none;top=0;left=0;bottom=0;right=0;editable=1;overflow=hidden;" vertex="1" parent="B2AtOXa8_qwbwvySUOUb-21">
          <mxGeometry width="30" height="30" as="geometry" />
        </mxCell>
        <mxCell id="B2AtOXa8_qwbwvySUOUb-23" value="Date of Workout" style="shape=partialRectangle;connectable=0;fillColor=none;top=0;left=0;bottom=0;right=0;align=left;spacingLeft=6;overflow=hidden;" vertex="1" parent="B2AtOXa8_qwbwvySUOUb-21">
          <mxGeometry x="30" width="150" height="30" as="geometry" />
        </mxCell>
        <mxCell id="B2AtOXa8_qwbwvySUOUb-24" value="" style="shape=partialRectangle;collapsible=0;dropTarget=0;pointerEvents=0;fillColor=none;top=0;left=0;bottom=0;right=0;points=[[0,0.5],[1,0.5]];portConstraint=eastwest;" vertex="1" parent="B2AtOXa8_qwbwvySUOUb-17">
          <mxGeometry y="80" width="180" height="30" as="geometry" />
        </mxCell>
        <mxCell id="B2AtOXa8_qwbwvySUOUb-25" value="" style="shape=partialRectangle;connectable=0;fillColor=none;top=0;left=0;bottom=0;right=0;editable=1;overflow=hidden;" vertex="1" parent="B2AtOXa8_qwbwvySUOUb-24">
          <mxGeometry width="30" height="30" as="geometry" />
        </mxCell>
        <mxCell id="B2AtOXa8_qwbwvySUOUb-26" value="Type of Workout" style="shape=partialRectangle;connectable=0;fillColor=none;top=0;left=0;bottom=0;right=0;align=left;spacingLeft=6;overflow=hidden;" vertex="1" parent="B2AtOXa8_qwbwvySUOUb-24">
          <mxGeometry x="30" width="150" height="30" as="geometry" />
        </mxCell>
        <mxCell id="B2AtOXa8_qwbwvySUOUb-124" style="edgeStyle=orthogonalEdgeStyle;rounded=0;orthogonalLoop=1;jettySize=auto;html=1;entryX=0;entryY=1;entryDx=0;entryDy=0;entryPerimeter=0;" edge="1" parent="1" source="B2AtOXa8_qwbwvySUOUb-27" target="B2AtOXa8_qwbwvySUOUb-73">
          <mxGeometry relative="1" as="geometry" />
        </mxCell>
        <mxCell id="B2AtOXa8_qwbwvySUOUb-27" value="SwimmingÂ " style="shape=table;startSize=30;container=1;collapsible=1;childLayout=tableLayout;fixedRows=1;rowLines=0;fontStyle=1;align=center;resizeLast=1;" vertex="1" parent="1">
          <mxGeometry x="30" y="800" width="180" height="220" as="geometry" />
        </mxCell>
        <mxCell id="B2AtOXa8_qwbwvySUOUb-28" value="" style="shape=partialRectangle;collapsible=0;dropTarget=0;pointerEvents=0;fillColor=none;top=0;left=0;bottom=1;right=0;points=[[0,0.5],[1,0.5]];portConstraint=eastwest;" vertex="1" parent="B2AtOXa8_qwbwvySUOUb-27">
          <mxGeometry y="30" width="180" height="30" as="geometry" />
        </mxCell>
        <mxCell id="B2AtOXa8_qwbwvySUOUb-29" value="PK" style="shape=partialRectangle;connectable=0;fillColor=none;top=0;left=0;bottom=0;right=0;fontStyle=1;overflow=hidden;" vertex="1" parent="B2AtOXa8_qwbwvySUOUb-28">
          <mxGeometry width="30" height="30" as="geometry" />
        </mxCell>
        <mxCell id="B2AtOXa8_qwbwvySUOUb-30" value="Workout Number" style="shape=partialRectangle;connectable=0;fillColor=none;top=0;left=0;bottom=0;right=0;align=left;spacingLeft=6;fontStyle=5;overflow=hidden;" vertex="1" parent="B2AtOXa8_qwbwvySUOUb-28">
          <mxGeometry x="30" width="150" height="30" as="geometry" />
        </mxCell>
        <mxCell id="B2AtOXa8_qwbwvySUOUb-31" value="" style="shape=partialRectangle;collapsible=0;dropTarget=0;pointerEvents=0;fillColor=none;top=0;left=0;bottom=0;right=0;points=[[0,0.5],[1,0.5]];portConstraint=eastwest;" vertex="1" parent="B2AtOXa8_qwbwvySUOUb-27">
          <mxGeometry y="60" width="180" height="30" as="geometry" />
        </mxCell>
        <mxCell id="B2AtOXa8_qwbwvySUOUb-32" value="" style="shape=partialRectangle;connectable=0;fillColor=none;top=0;left=0;bottom=0;right=0;editable=1;overflow=hidden;" vertex="1" parent="B2AtOXa8_qwbwvySUOUb-31">
          <mxGeometry width="30" height="30" as="geometry" />
        </mxCell>
        <mxCell id="B2AtOXa8_qwbwvySUOUb-33" value="TimeÂ " style="shape=partialRectangle;connectable=0;fillColor=none;top=0;left=0;bottom=0;right=0;align=left;spacingLeft=6;overflow=hidden;" vertex="1" parent="B2AtOXa8_qwbwvySUOUb-31">
          <mxGeometry x="30" width="150" height="30" as="geometry" />
        </mxCell>
        <mxCell id="B2AtOXa8_qwbwvySUOUb-34" value="" style="shape=partialRectangle;collapsible=0;dropTarget=0;pointerEvents=0;fillColor=none;top=0;left=0;bottom=0;right=0;points=[[0,0.5],[1,0.5]];portConstraint=eastwest;" vertex="1" parent="B2AtOXa8_qwbwvySUOUb-27">
          <mxGeometry y="90" width="180" height="30" as="geometry" />
        </mxCell>
        <mxCell id="B2AtOXa8_qwbwvySUOUb-35" value="" style="shape=partialRectangle;connectable=0;fillColor=none;top=0;left=0;bottom=0;right=0;editable=1;overflow=hidden;" vertex="1" parent="B2AtOXa8_qwbwvySUOUb-34">
          <mxGeometry width="30" height="30" as="geometry" />
        </mxCell>
        <mxCell id="B2AtOXa8_qwbwvySUOUb-36" value="Stroke" style="shape=partialRectangle;connectable=0;fillColor=none;top=0;left=0;bottom=0;right=0;align=left;spacingLeft=6;overflow=hidden;" vertex="1" parent="B2AtOXa8_qwbwvySUOUb-34">
          <mxGeometry x="30" width="150" height="30" as="geometry" />
        </mxCell>
        <mxCell id="B2AtOXa8_qwbwvySUOUb-37" value="" style="shape=partialRectangle;collapsible=0;dropTarget=0;pointerEvents=0;fillColor=none;top=0;left=0;bottom=0;right=0;points=[[0,0.5],[1,0.5]];portConstraint=eastwest;" vertex="1" parent="B2AtOXa8_qwbwvySUOUb-27">
          <mxGeometry y="120" width="180" height="30" as="geometry" />
        </mxCell>
        <mxCell id="B2AtOXa8_qwbwvySUOUb-38" value="" style="shape=partialRectangle;connectable=0;fillColor=none;top=0;left=0;bottom=0;right=0;editable=1;overflow=hidden;" vertex="1" parent="B2AtOXa8_qwbwvySUOUb-37">
          <mxGeometry width="30" height="30" as="geometry" />
        </mxCell>
        <mxCell id="B2AtOXa8_qwbwvySUOUb-39" value="Distance" style="shape=partialRectangle;connectable=0;fillColor=none;top=0;left=0;bottom=0;right=0;align=left;spacingLeft=6;overflow=hidden;" vertex="1" parent="B2AtOXa8_qwbwvySUOUb-37">
          <mxGeometry x="30" width="150" height="30" as="geometry" />
        </mxCell>
        <mxCell id="B2AtOXa8_qwbwvySUOUb-101" style="shape=partialRectangle;collapsible=0;dropTarget=0;pointerEvents=0;fillColor=none;top=0;left=0;bottom=0;right=0;points=[[0,0.5],[1,0.5]];portConstraint=eastwest;" vertex="1" parent="B2AtOXa8_qwbwvySUOUb-27">
          <mxGeometry y="150" width="180" height="30" as="geometry" />
        </mxCell>
        <mxCell id="B2AtOXa8_qwbwvySUOUb-102" style="shape=partialRectangle;connectable=0;fillColor=none;top=0;left=0;bottom=0;right=0;editable=1;overflow=hidden;" vertex="1" parent="B2AtOXa8_qwbwvySUOUb-101">
          <mxGeometry width="30" height="30" as="geometry" />
        </mxCell>
        <mxCell id="B2AtOXa8_qwbwvySUOUb-103" value="Milesplit" style="shape=partialRectangle;connectable=0;fillColor=none;top=0;left=0;bottom=0;right=0;align=left;spacingLeft=6;overflow=hidden;" vertex="1" parent="B2AtOXa8_qwbwvySUOUb-101">
          <mxGeometry x="30" width="150" height="30" as="geometry" />
        </mxCell>
        <mxCell id="B2AtOXa8_qwbwvySUOUb-104" style="shape=partialRectangle;collapsible=0;dropTarget=0;pointerEvents=0;fillColor=none;top=0;left=0;bottom=0;right=0;points=[[0,0.5],[1,0.5]];portConstraint=eastwest;" vertex="1" parent="B2AtOXa8_qwbwvySUOUb-27">
          <mxGeometry y="180" width="180" height="30" as="geometry" />
        </mxCell>
        <mxCell id="B2AtOXa8_qwbwvySUOUb-105" style="shape=partialRectangle;connectable=0;fillColor=none;top=0;left=0;bottom=0;right=0;editable=1;overflow=hidden;" vertex="1" parent="B2AtOXa8_qwbwvySUOUb-104">
          <mxGeometry width="30" height="30" as="geometry" />
        </mxCell>
        <mxCell id="B2AtOXa8_qwbwvySUOUb-106" value="Pool or Natural" style="shape=partialRectangle;connectable=0;fillColor=none;top=0;left=0;bottom=0;right=0;align=left;spacingLeft=6;overflow=hidden;" vertex="1" parent="B2AtOXa8_qwbwvySUOUb-104">
          <mxGeometry x="30" width="150" height="30" as="geometry" />
        </mxCell>
        <mxCell id="B2AtOXa8_qwbwvySUOUb-122" style="edgeStyle=orthogonalEdgeStyle;rounded=0;orthogonalLoop=1;jettySize=auto;html=1;entryX=0.444;entryY=0;entryDx=0;entryDy=0;entryPerimeter=0;" edge="1" parent="1" source="B2AtOXa8_qwbwvySUOUb-40" target="B2AtOXa8_qwbwvySUOUb-66">
          <mxGeometry relative="1" as="geometry" />
        </mxCell>
        <mxCell id="B2AtOXa8_qwbwvySUOUb-40" value="Running" style="shape=table;startSize=30;container=1;collapsible=1;childLayout=tableLayout;fixedRows=1;rowLines=0;fontStyle=1;align=center;resizeLast=1;" vertex="1" parent="1">
          <mxGeometry x="310" y="800" width="180" height="190" as="geometry" />
        </mxCell>
        <mxCell id="B2AtOXa8_qwbwvySUOUb-41" value="" style="shape=partialRectangle;collapsible=0;dropTarget=0;pointerEvents=0;fillColor=none;top=0;left=0;bottom=1;right=0;points=[[0,0.5],[1,0.5]];portConstraint=eastwest;" vertex="1" parent="B2AtOXa8_qwbwvySUOUb-40">
          <mxGeometry y="30" width="180" height="30" as="geometry" />
        </mxCell>
        <mxCell id="B2AtOXa8_qwbwvySUOUb-42" value="PK" style="shape=partialRectangle;connectable=0;fillColor=none;top=0;left=0;bottom=0;right=0;fontStyle=1;overflow=hidden;" vertex="1" parent="B2AtOXa8_qwbwvySUOUb-41">
          <mxGeometry width="30" height="30" as="geometry" />
        </mxCell>
        <mxCell id="B2AtOXa8_qwbwvySUOUb-43" value="Workout Number" style="shape=partialRectangle;connectable=0;fillColor=none;top=0;left=0;bottom=0;right=0;align=left;spacingLeft=6;fontStyle=5;overflow=hidden;" vertex="1" parent="B2AtOXa8_qwbwvySUOUb-41">
          <mxGeometry x="30" width="150" height="30" as="geometry" />
        </mxCell>
        <mxCell id="B2AtOXa8_qwbwvySUOUb-44" value="" style="shape=partialRectangle;collapsible=0;dropTarget=0;pointerEvents=0;fillColor=none;top=0;left=0;bottom=0;right=0;points=[[0,0.5],[1,0.5]];portConstraint=eastwest;" vertex="1" parent="B2AtOXa8_qwbwvySUOUb-40">
          <mxGeometry y="60" width="180" height="30" as="geometry" />
        </mxCell>
        <mxCell id="B2AtOXa8_qwbwvySUOUb-45" value="" style="shape=partialRectangle;connectable=0;fillColor=none;top=0;left=0;bottom=0;right=0;editable=1;overflow=hidden;" vertex="1" parent="B2AtOXa8_qwbwvySUOUb-44">
          <mxGeometry width="30" height="30" as="geometry" />
        </mxCell>
        <mxCell id="B2AtOXa8_qwbwvySUOUb-46" value="Time" style="shape=partialRectangle;connectable=0;fillColor=none;top=0;left=0;bottom=0;right=0;align=left;spacingLeft=6;overflow=hidden;" vertex="1" parent="B2AtOXa8_qwbwvySUOUb-44">
          <mxGeometry x="30" width="150" height="30" as="geometry" />
        </mxCell>
        <mxCell id="B2AtOXa8_qwbwvySUOUb-47" value="" style="shape=partialRectangle;collapsible=0;dropTarget=0;pointerEvents=0;fillColor=none;top=0;left=0;bottom=0;right=0;points=[[0,0.5],[1,0.5]];portConstraint=eastwest;" vertex="1" parent="B2AtOXa8_qwbwvySUOUb-40">
          <mxGeometry y="90" width="180" height="30" as="geometry" />
        </mxCell>
        <mxCell id="B2AtOXa8_qwbwvySUOUb-48" value="" style="shape=partialRectangle;connectable=0;fillColor=none;top=0;left=0;bottom=0;right=0;editable=1;overflow=hidden;" vertex="1" parent="B2AtOXa8_qwbwvySUOUb-47">
          <mxGeometry width="30" height="30" as="geometry" />
        </mxCell>
        <mxCell id="B2AtOXa8_qwbwvySUOUb-49" value="Distance" style="shape=partialRectangle;connectable=0;fillColor=none;top=0;left=0;bottom=0;right=0;align=left;spacingLeft=6;overflow=hidden;" vertex="1" parent="B2AtOXa8_qwbwvySUOUb-47">
          <mxGeometry x="30" width="150" height="30" as="geometry" />
        </mxCell>
        <mxCell id="B2AtOXa8_qwbwvySUOUb-50" value="" style="shape=partialRectangle;collapsible=0;dropTarget=0;pointerEvents=0;fillColor=none;top=0;left=0;bottom=0;right=0;points=[[0,0.5],[1,0.5]];portConstraint=eastwest;" vertex="1" parent="B2AtOXa8_qwbwvySUOUb-40">
          <mxGeometry y="120" width="180" height="30" as="geometry" />
        </mxCell>
        <mxCell id="B2AtOXa8_qwbwvySUOUb-51" value="" style="shape=partialRectangle;connectable=0;fillColor=none;top=0;left=0;bottom=0;right=0;editable=1;overflow=hidden;" vertex="1" parent="B2AtOXa8_qwbwvySUOUb-50">
          <mxGeometry width="30" height="30" as="geometry" />
        </mxCell>
        <mxCell id="B2AtOXa8_qwbwvySUOUb-52" value="Terrain" style="shape=partialRectangle;connectable=0;fillColor=none;top=0;left=0;bottom=0;right=0;align=left;spacingLeft=6;overflow=hidden;" vertex="1" parent="B2AtOXa8_qwbwvySUOUb-50">
          <mxGeometry x="30" width="150" height="30" as="geometry" />
        </mxCell>
        <mxCell id="B2AtOXa8_qwbwvySUOUb-98" style="shape=partialRectangle;collapsible=0;dropTarget=0;pointerEvents=0;fillColor=none;top=0;left=0;bottom=0;right=0;points=[[0,0.5],[1,0.5]];portConstraint=eastwest;" vertex="1" parent="B2AtOXa8_qwbwvySUOUb-40">
          <mxGeometry y="150" width="180" height="30" as="geometry" />
        </mxCell>
        <mxCell id="B2AtOXa8_qwbwvySUOUb-99" style="shape=partialRectangle;connectable=0;fillColor=none;top=0;left=0;bottom=0;right=0;editable=1;overflow=hidden;" vertex="1" parent="B2AtOXa8_qwbwvySUOUb-98">
          <mxGeometry width="30" height="30" as="geometry" />
        </mxCell>
        <mxCell id="B2AtOXa8_qwbwvySUOUb-100" value="Milesplit" style="shape=partialRectangle;connectable=0;fillColor=none;top=0;left=0;bottom=0;right=0;align=left;spacingLeft=6;overflow=hidden;" vertex="1" parent="B2AtOXa8_qwbwvySUOUb-98">
          <mxGeometry x="30" width="150" height="30" as="geometry" />
        </mxCell>
        <mxCell id="B2AtOXa8_qwbwvySUOUb-123" style="edgeStyle=orthogonalEdgeStyle;rounded=0;orthogonalLoop=1;jettySize=auto;html=1;entryX=1;entryY=0.5;entryDx=0;entryDy=0;" edge="1" parent="1" source="B2AtOXa8_qwbwvySUOUb-53" target="B2AtOXa8_qwbwvySUOUb-70">
          <mxGeometry relative="1" as="geometry" />
        </mxCell>
        <mxCell id="B2AtOXa8_qwbwvySUOUb-53" value="Biking" style="shape=table;startSize=30;container=1;collapsible=1;childLayout=tableLayout;fixedRows=1;rowLines=0;fontStyle=1;align=center;resizeLast=1;" vertex="1" parent="1">
          <mxGeometry x="580" y="800" width="180" height="220" as="geometry" />
        </mxCell>
        <mxCell id="B2AtOXa8_qwbwvySUOUb-54" value="" style="shape=partialRectangle;collapsible=0;dropTarget=0;pointerEvents=0;fillColor=none;top=0;left=0;bottom=1;right=0;points=[[0,0.5],[1,0.5]];portConstraint=eastwest;" vertex="1" parent="B2AtOXa8_qwbwvySUOUb-53">
          <mxGeometry y="30" width="180" height="30" as="geometry" />
        </mxCell>
        <mxCell id="B2AtOXa8_qwbwvySUOUb-55" value="PK" style="shape=partialRectangle;connectable=0;fillColor=none;top=0;left=0;bottom=0;right=0;fontStyle=1;overflow=hidden;" vertex="1" parent="B2AtOXa8_qwbwvySUOUb-54">
          <mxGeometry width="30" height="30" as="geometry" />
        </mxCell>
        <mxCell id="B2AtOXa8_qwbwvySUOUb-56" value="Workout Number" style="shape=partialRectangle;connectable=0;fillColor=none;top=0;left=0;bottom=0;right=0;align=left;spacingLeft=6;fontStyle=5;overflow=hidden;" vertex="1" parent="B2AtOXa8_qwbwvySUOUb-54">
          <mxGeometry x="30" width="150" height="30" as="geometry" />
        </mxCell>
        <mxCell id="B2AtOXa8_qwbwvySUOUb-57" value="" style="shape=partialRectangle;collapsible=0;dropTarget=0;pointerEvents=0;fillColor=none;top=0;left=0;bottom=0;right=0;points=[[0,0.5],[1,0.5]];portConstraint=eastwest;" vertex="1" parent="B2AtOXa8_qwbwvySUOUb-53">
          <mxGeometry y="60" width="180" height="30" as="geometry" />
        </mxCell>
        <mxCell id="B2AtOXa8_qwbwvySUOUb-58" value="" style="shape=partialRectangle;connectable=0;fillColor=none;top=0;left=0;bottom=0;right=0;editable=1;overflow=hidden;" vertex="1" parent="B2AtOXa8_qwbwvySUOUb-57">
          <mxGeometry width="30" height="30" as="geometry" />
        </mxCell>
        <mxCell id="B2AtOXa8_qwbwvySUOUb-59" value="Time" style="shape=partialRectangle;connectable=0;fillColor=none;top=0;left=0;bottom=0;right=0;align=left;spacingLeft=6;overflow=hidden;" vertex="1" parent="B2AtOXa8_qwbwvySUOUb-57">
          <mxGeometry x="30" width="150" height="30" as="geometry" />
        </mxCell>
        <mxCell id="B2AtOXa8_qwbwvySUOUb-110" style="shape=partialRectangle;collapsible=0;dropTarget=0;pointerEvents=0;fillColor=none;top=0;left=0;bottom=0;right=0;points=[[0,0.5],[1,0.5]];portConstraint=eastwest;" vertex="1" parent="B2AtOXa8_qwbwvySUOUb-53">
          <mxGeometry y="90" width="180" height="30" as="geometry" />
        </mxCell>
        <mxCell id="B2AtOXa8_qwbwvySUOUb-111" style="shape=partialRectangle;connectable=0;fillColor=none;top=0;left=0;bottom=0;right=0;editable=1;overflow=hidden;" vertex="1" parent="B2AtOXa8_qwbwvySUOUb-110">
          <mxGeometry width="30" height="30" as="geometry" />
        </mxCell>
        <mxCell id="B2AtOXa8_qwbwvySUOUb-112" value="Distance" style="shape=partialRectangle;connectable=0;fillColor=none;top=0;left=0;bottom=0;right=0;align=left;spacingLeft=6;overflow=hidden;" vertex="1" parent="B2AtOXa8_qwbwvySUOUb-110">
          <mxGeometry x="30" width="150" height="30" as="geometry" />
        </mxCell>
        <mxCell id="B2AtOXa8_qwbwvySUOUb-107" style="shape=partialRectangle;collapsible=0;dropTarget=0;pointerEvents=0;fillColor=none;top=0;left=0;bottom=0;right=0;points=[[0,0.5],[1,0.5]];portConstraint=eastwest;" vertex="1" parent="B2AtOXa8_qwbwvySUOUb-53">
          <mxGeometry y="120" width="180" height="30" as="geometry" />
        </mxCell>
        <mxCell id="B2AtOXa8_qwbwvySUOUb-108" style="shape=partialRectangle;connectable=0;fillColor=none;top=0;left=0;bottom=0;right=0;editable=1;overflow=hidden;" vertex="1" parent="B2AtOXa8_qwbwvySUOUb-107">
          <mxGeometry width="30" height="30" as="geometry" />
        </mxCell>
        <mxCell id="B2AtOXa8_qwbwvySUOUb-109" value="Milesplit" style="shape=partialRectangle;connectable=0;fillColor=none;top=0;left=0;bottom=0;right=0;align=left;spacingLeft=6;overflow=hidden;" vertex="1" parent="B2AtOXa8_qwbwvySUOUb-107">
          <mxGeometry x="30" width="150" height="30" as="geometry" />
        </mxCell>
        <mxCell id="B2AtOXa8_qwbwvySUOUb-60" value="" style="shape=partialRectangle;collapsible=0;dropTarget=0;pointerEvents=0;fillColor=none;top=0;left=0;bottom=0;right=0;points=[[0,0.5],[1,0.5]];portConstraint=eastwest;" vertex="1" parent="B2AtOXa8_qwbwvySUOUb-53">
          <mxGeometry y="150" width="180" height="30" as="geometry" />
        </mxCell>
        <mxCell id="B2AtOXa8_qwbwvySUOUb-61" value="" style="shape=partialRectangle;connectable=0;fillColor=none;top=0;left=0;bottom=0;right=0;editable=1;overflow=hidden;" vertex="1" parent="B2AtOXa8_qwbwvySUOUb-60">
          <mxGeometry width="30" height="30" as="geometry" />
        </mxCell>
        <mxCell id="B2AtOXa8_qwbwvySUOUb-62" value="Time" style="shape=partialRectangle;connectable=0;fillColor=none;top=0;left=0;bottom=0;right=0;align=left;spacingLeft=6;overflow=hidden;" vertex="1" parent="B2AtOXa8_qwbwvySUOUb-60">
          <mxGeometry x="30" width="150" height="30" as="geometry" />
        </mxCell>
        <mxCell id="B2AtOXa8_qwbwvySUOUb-63" value="" style="shape=partialRectangle;collapsible=0;dropTarget=0;pointerEvents=0;fillColor=none;top=0;left=0;bottom=0;right=0;points=[[0,0.5],[1,0.5]];portConstraint=eastwest;" vertex="1" parent="B2AtOXa8_qwbwvySUOUb-53">
          <mxGeometry y="180" width="180" height="30" as="geometry" />
        </mxCell>
        <mxCell id="B2AtOXa8_qwbwvySUOUb-64" value="" style="shape=partialRectangle;connectable=0;fillColor=none;top=0;left=0;bottom=0;right=0;editable=1;overflow=hidden;" vertex="1" parent="B2AtOXa8_qwbwvySUOUb-63">
          <mxGeometry width="30" height="30" as="geometry" />
        </mxCell>
        <mxCell id="B2AtOXa8_qwbwvySUOUb-65" value="Terrain" style="shape=partialRectangle;connectable=0;fillColor=none;top=0;left=0;bottom=0;right=0;align=left;spacingLeft=6;overflow=hidden;" vertex="1" parent="B2AtOXa8_qwbwvySUOUb-63">
          <mxGeometry x="30" width="150" height="30" as="geometry" />
        </mxCell>
        <mxCell id="B2AtOXa8_qwbwvySUOUb-66" value="Overall Progress" style="shape=table;startSize=30;container=1;collapsible=1;childLayout=tableLayout;fixedRows=1;rowLines=0;fontStyle=1;align=center;resizeLast=1;" vertex="1" parent="1">
          <mxGeometry x="320" y="1130" width="180" height="220" as="geometry" />
        </mxCell>
        <mxCell id="B2AtOXa8_qwbwvySUOUb-67" value="" style="shape=partialRectangle;collapsible=0;dropTarget=0;pointerEvents=0;fillColor=none;top=0;left=0;bottom=1;right=0;points=[[0,0.5],[1,0.5]];portConstraint=eastwest;" vertex="1" parent="B2AtOXa8_qwbwvySUOUb-66">
          <mxGeometry y="30" width="180" height="30" as="geometry" />
        </mxCell>
        <mxCell id="B2AtOXa8_qwbwvySUOUb-68" value="PK" style="shape=partialRectangle;connectable=0;fillColor=none;top=0;left=0;bottom=0;right=0;fontStyle=1;overflow=hidden;" vertex="1" parent="B2AtOXa8_qwbwvySUOUb-67">
          <mxGeometry width="30" height="30" as="geometry" />
        </mxCell>
        <mxCell id="B2AtOXa8_qwbwvySUOUb-69" value="TeamID" style="shape=partialRectangle;connectable=0;fillColor=none;top=0;left=0;bottom=0;right=0;align=left;spacingLeft=6;fontStyle=5;overflow=hidden;" vertex="1" parent="B2AtOXa8_qwbwvySUOUb-67">
          <mxGeometry x="30" width="150" height="30" as="geometry" />
        </mxCell>
        <mxCell id="B2AtOXa8_qwbwvySUOUb-70" value="" style="shape=partialRectangle;collapsible=0;dropTarget=0;pointerEvents=0;fillColor=none;top=0;left=0;bottom=0;right=0;points=[[0,0.5],[1,0.5]];portConstraint=eastwest;" vertex="1" parent="B2AtOXa8_qwbwvySUOUb-66">
          <mxGeometry y="60" width="180" height="30" as="geometry" />
        </mxCell>
        <mxCell id="B2AtOXa8_qwbwvySUOUb-71" value="" style="shape=partialRectangle;connectable=0;fillColor=none;top=0;left=0;bottom=0;right=0;editable=1;overflow=hidden;" vertex="1" parent="B2AtOXa8_qwbwvySUOUb-70">
          <mxGeometry width="30" height="30" as="geometry" />
        </mxCell>
        <mxCell id="B2AtOXa8_qwbwvySUOUb-72" value="Biking Distance" style="shape=partialRectangle;connectable=0;fillColor=none;top=0;left=0;bottom=0;right=0;align=left;spacingLeft=6;overflow=hidden;" vertex="1" parent="B2AtOXa8_qwbwvySUOUb-70">
          <mxGeometry x="30" width="150" height="30" as="geometry" />
        </mxCell>
        <mxCell id="B2AtOXa8_qwbwvySUOUb-73" value="" style="shape=partialRectangle;collapsible=0;dropTarget=0;pointerEvents=0;fillColor=none;top=0;left=0;bottom=0;right=0;points=[[0,0.5],[1,0.5]];portConstraint=eastwest;" vertex="1" parent="B2AtOXa8_qwbwvySUOUb-66">
          <mxGeometry y="90" width="180" height="30" as="geometry" />
        </mxCell>
        <mxCell id="B2AtOXa8_qwbwvySUOUb-74" value="" style="shape=partialRectangle;connectable=0;fillColor=none;top=0;left=0;bottom=0;right=0;editable=1;overflow=hidden;" vertex="1" parent="B2AtOXa8_qwbwvySUOUb-73">
          <mxGeometry width="30" height="30" as="geometry" />
        </mxCell>
        <mxCell id="B2AtOXa8_qwbwvySUOUb-75" value="Running Distance" style="shape=partialRectangle;connectable=0;fillColor=none;top=0;left=0;bottom=0;right=0;align=left;spacingLeft=6;overflow=hidden;" vertex="1" parent="B2AtOXa8_qwbwvySUOUb-73">
          <mxGeometry x="30" width="150" height="30" as="geometry" />
        </mxCell>
        <mxCell id="B2AtOXa8_qwbwvySUOUb-76" value="" style="shape=partialRectangle;collapsible=0;dropTarget=0;pointerEvents=0;fillColor=none;top=0;left=0;bottom=0;right=0;points=[[0,0.5],[1,0.5]];portConstraint=eastwest;" vertex="1" parent="B2AtOXa8_qwbwvySUOUb-66">
          <mxGeometry y="120" width="180" height="30" as="geometry" />
        </mxCell>
        <mxCell id="B2AtOXa8_qwbwvySUOUb-77" value="" style="shape=partialRectangle;connectable=0;fillColor=none;top=0;left=0;bottom=0;right=0;editable=1;overflow=hidden;" vertex="1" parent="B2AtOXa8_qwbwvySUOUb-76">
          <mxGeometry width="30" height="30" as="geometry" />
        </mxCell>
        <mxCell id="B2AtOXa8_qwbwvySUOUb-78" value="Swimming Distance" style="shape=partialRectangle;connectable=0;fillColor=none;top=0;left=0;bottom=0;right=0;align=left;spacingLeft=6;overflow=hidden;" vertex="1" parent="B2AtOXa8_qwbwvySUOUb-76">
          <mxGeometry x="30" width="150" height="30" as="geometry" />
        </mxCell>
        <mxCell id="B2AtOXa8_qwbwvySUOUb-125" style="shape=partialRectangle;collapsible=0;dropTarget=0;pointerEvents=0;fillColor=none;top=0;left=0;bottom=0;right=0;points=[[0,0.5],[1,0.5]];portConstraint=eastwest;" vertex="1" parent="B2AtOXa8_qwbwvySUOUb-66">
          <mxGeometry y="150" width="180" height="30" as="geometry" />
        </mxCell>
        <mxCell id="B2AtOXa8_qwbwvySUOUb-126" style="shape=partialRectangle;connectable=0;fillColor=none;top=0;left=0;bottom=0;right=0;editable=1;overflow=hidden;" vertex="1" parent="B2AtOXa8_qwbwvySUOUb-125">
          <mxGeometry width="30" height="30" as="geometry" />
        </mxCell>
        <mxCell id="B2AtOXa8_qwbwvySUOUb-127" value="Total Overall Miles" style="shape=partialRectangle;connectable=0;fillColor=none;top=0;left=0;bottom=0;right=0;align=left;spacingLeft=6;overflow=hidden;" vertex="1" parent="B2AtOXa8_qwbwvySUOUb-125">
          <mxGeometry x="30" width="150" height="30" as="geometry" />
        </mxCell>
        <mxCell id="B2AtOXa8_qwbwvySUOUb-128" style="shape=partialRectangle;collapsible=0;dropTarget=0;pointerEvents=0;fillColor=none;top=0;left=0;bottom=0;right=0;points=[[0,0.5],[1,0.5]];portConstraint=eastwest;" vertex="1" parent="B2AtOXa8_qwbwvySUOUb-66">
          <mxGeometry y="180" width="180" height="30" as="geometry" />
        </mxCell>
        <mxCell id="B2AtOXa8_qwbwvySUOUb-129" style="shape=partialRectangle;connectable=0;fillColor=none;top=0;left=0;bottom=0;right=0;editable=1;overflow=hidden;" vertex="1" parent="B2AtOXa8_qwbwvySUOUb-128">
          <mxGeometry width="30" height="30" as="geometry" />
        </mxCell>
        <mxCell id="B2AtOXa8_qwbwvySUOUb-130" value="Total Number of Workouts" style="shape=partialRectangle;connectable=0;fillColor=none;top=0;left=0;bottom=0;right=0;align=left;spacingLeft=6;overflow=hidden;" vertex="1" parent="B2AtOXa8_qwbwvySUOUb-128">
          <mxGeometry x="30" width="150" height="30" as="geometry" />
        </mxCell>
        <mxCell id="B2AtOXa8_qwbwvySUOUb-79" value="Days until the Race" style="shape=table;startSize=30;container=1;collapsible=1;childLayout=tableLayout;fixedRows=1;rowLines=0;fontStyle=1;align=center;resizeLast=1;" vertex="1" parent="1">
          <mxGeometry x="610" y="240" width="180" height="100" as="geometry" />
        </mxCell>
        <mxCell id="B2AtOXa8_qwbwvySUOUb-80" value="" style="shape=partialRectangle;collapsible=0;dropTarget=0;pointerEvents=0;fillColor=none;top=0;left=0;bottom=1;right=0;points=[[0,0.5],[1,0.5]];portConstraint=eastwest;" vertex="1" parent="B2AtOXa8_qwbwvySUOUb-79">
          <mxGeometry y="30" width="180" height="30" as="geometry" />
        </mxCell>
        <mxCell id="B2AtOXa8_qwbwvySUOUb-81" value="PK" style="shape=partialRectangle;connectable=0;fillColor=none;top=0;left=0;bottom=0;right=0;fontStyle=1;overflow=hidden;" vertex="1" parent="B2AtOXa8_qwbwvySUOUb-80">
          <mxGeometry width="30" height="30" as="geometry" />
        </mxCell>
        <mxCell id="B2AtOXa8_qwbwvySUOUb-82" value="Date Today" style="shape=partialRectangle;connectable=0;fillColor=none;top=0;left=0;bottom=0;right=0;align=left;spacingLeft=6;fontStyle=5;overflow=hidden;" vertex="1" parent="B2AtOXa8_qwbwvySUOUb-80">
          <mxGeometry x="30" width="150" height="30" as="geometry" />
        </mxCell>
        <mxCell id="B2AtOXa8_qwbwvySUOUb-83" value="" style="shape=partialRectangle;collapsible=0;dropTarget=0;pointerEvents=0;fillColor=none;top=0;left=0;bottom=0;right=0;points=[[0,0.5],[1,0.5]];portConstraint=eastwest;" vertex="1" parent="B2AtOXa8_qwbwvySUOUb-79">
          <mxGeometry y="60" width="180" height="30" as="geometry" />
        </mxCell>
        <mxCell id="B2AtOXa8_qwbwvySUOUb-84" value="" style="shape=partialRectangle;connectable=0;fillColor=none;top=0;left=0;bottom=0;right=0;editable=1;overflow=hidden;" vertex="1" parent="B2AtOXa8_qwbwvySUOUb-83">
          <mxGeometry width="30" height="30" as="geometry" />
        </mxCell>
        <mxCell id="B2AtOXa8_qwbwvySUOUb-85" value="Days until the Race" style="shape=partialRectangle;connectable=0;fillColor=none;top=0;left=0;bottom=0;right=0;align=left;spacingLeft=6;overflow=hidden;" vertex="1" parent="B2AtOXa8_qwbwvySUOUb-83">
          <mxGeometry x="30" width="150" height="30" as="geometry" />
        </mxCell>
        <mxCell id="B2AtOXa8_qwbwvySUOUb-93" style="edgeStyle=orthogonalEdgeStyle;rounded=0;orthogonalLoop=1;jettySize=auto;html=1;" edge="1" parent="1" source="B2AtOXa8_qwbwvySUOUb-24" target="B2AtOXa8_qwbwvySUOUb-27">
          <mxGeometry relative="1" as="geometry" />
        </mxCell>
        <mxCell id="B2AtOXa8_qwbwvySUOUb-94" style="edgeStyle=orthogonalEdgeStyle;rounded=0;orthogonalLoop=1;jettySize=auto;html=1;" edge="1" parent="1" source="B2AtOXa8_qwbwvySUOUb-24" target="B2AtOXa8_qwbwvySUOUb-53">
          <mxGeometry relative="1" as="geometry" />
        </mxCell>
      </root>
    </mxGraphModel>
  </diagram>
</mxfile>
